<?xml version="1.0" standalone="no"?>
<!DOCTYPE svg PUBLIC "-//W3C//DTD SVG 20010904//EN"
 "http://www.w3.org/TR/2001/REC-SVG-20010904/DTD/svg10.dtd">
<svg version="1.0" xmlns="http://www.w3.org/2000/svg"
 width="225.000000pt" height="225.000000pt" viewBox="0 0 225.000000 225.000000"
 preserveAspectRatio="xMidYMid meet">
<metadata>
Created by potrace 1.14, written by Peter Selinger 2001-2017
</metadata>
<g transform="translate(0.000000,225.000000) scale(0.100000,-0.100000)"
fill="#000000" stroke="none">
<path d="M1058 2045 c-2 -1 -28 -5 -58 -9 -167 -18 -369 -112 -499 -232 -23
-21 -27 -22 -47 -9 -21 14 -23 13 -28 -13 -13 -67 -18 -102 -13 -102 4 0 61
19 106 35 11 4 10 9 -5 26 -18 20 -17 21 31 64 59 52 178 123 255 153 184 72
415 78 605 16 235 -76 443 -266 540 -494 52 -121 73 -234 71 -385 -2 -127 4
-163 19 -114 23 71 7 288 -30 415 -88 303 -368 560 -685 628 -62 14 -253 29
-262 21z"/>
<path d="M1007 1674 c-125 -32 -234 -118 -294 -231 -59 -110 -71 -239 -33
-353 31 -93 59 -133 171 -240 95 -90 99 -97 93 -127 -6 -28 -3 -34 17 -41 l23
-9 -25 -7 c-23 -6 -24 -7 -5 -21 19 -15 19 -15 1 -29 -11 -8 -16 -19 -12 -30
6 -15 25 -16 174 -14 164 3 168 4 171 25 4 29 -9 31 -166 29 -73 -1 -135 1
-137 4 -2 4 63 7 146 8 159 1 184 6 153 29 -15 11 -16 15 -5 22 9 6 11 18 7
35 -5 22 2 33 51 78 165 153 198 198 228 315 63 240 -84 487 -330 556 -61 17
-163 18 -228 1z m313 -65 c213 -113 292 -370 180 -589 -21 -40 -71 -96 -175
-190 -28 -25 -57 -56 -65 -68 -14 -22 -21 -23 -145 -23 -116 -1 -131 1 -140
18 -5 10 -53 61 -106 113 -53 52 -106 109 -118 127 -60 89 -81 242 -48 354 33
112 131 223 238 272 36 17 108 34 164 39 50 5 154 -21 215 -53z m-306 -927 c3
-5 -1 -9 -9 -9 -8 0 -12 4 -9 9 3 4 7 8 9 8 2 0 6 -4 9 -8z m80 0 c3 -5 -1 -9
-9 -9 -8 0 -12 4 -9 9 3 4 7 8 9 8 2 0 6 -4 9 -8z m80 0 c3 -5 -1 -9 -9 -9 -8
0 -12 4 -9 9 3 4 7 8 9 8 2 0 6 -4 9 -8z m80 0 c3 -5 -1 -9 -9 -9 -8 0 -12 4
-9 9 3 4 7 8 9 8 2 0 6 -4 9 -8z m-197 -8 c-3 -3 -12 -4 -19 -1 -8 3 -5 6 6 6
11 1 17 -2 13 -5z m80 0 c-3 -3 -12 -4 -19 -1 -8 3 -5 6 6 6 11 1 17 -2 13 -5z
m80 0 c-3 -3 -12 -4 -19 -1 -8 3 -5 6 6 6 11 1 17 -2 13 -5z"/>
<path d="M1230 1360 c-20 -10 -60 -23 -90 -28 -77 -15 -102 -26 -138 -62 -35
-34 -48 -81 -37 -132 11 -49 12 -49 48 -17 19 18 57 37 92 47 43 12 71 28 98
55 21 21 34 30 28 19 -18 -34 -67 -68 -123 -86 -79 -26 -148 -103 -135 -153 3
-14 7 -10 17 15 6 17 14 32 16 32 2 0 18 -9 36 -20 87 -53 215 6 234 108 7 33
9 121 5 210 -1 37 -4 38 -51 12z"/>
<path d="M292 1518 c-16 -16 -15 -38 2 -38 17 0 30 30 18 42 -4 4 -13 3 -20
-4z"/>
<path d="M265 1455 c-3 -8 -7 -22 -10 -30 -6 -20 21 -19 29 1 9 24 7 44 -4 44
-6 0 -13 -7 -15 -15z"/>
<path d="M242 1379 c-20 -54 -23 -79 -8 -79 17 0 39 81 26 94 -6 6 -13 0 -18
-15z"/>
<path d="M215 1269 c-23 -73 -6 -308 31 -424 52 -162 171 -333 305 -439 349
-276 838 -267 1175 20 47 40 52 42 72 29 18 -14 21 -13 26 2 9 32 18 113 13
113 -3 0 -30 -10 -61 -21 -55 -21 -56 -22 -39 -42 17 -19 17 -20 -22 -54 -81
-72 -202 -141 -310 -177 -143 -49 -354 -56 -500 -17 -301 80 -544 312 -635
606 -31 103 -35 136 -34 288 1 129 -6 165 -21 116z"/>
<path d="M1992 908 c-12 -46 -1 -73 16 -41 15 28 19 75 6 80 -6 2 -16 -15 -22
-39z"/>
<path d="M1964 815 c-7 -28 1 -44 15 -29 15 15 17 47 4 51 -7 3 -15 -7 -19
-22z"/>
<path d="M1937 750 c-7 -27 9 -35 22 -11 14 26 14 31 -3 31 -7 0 -16 -9 -19
-20z"/>
</g>
</svg>
